<svg width="30" height="26" viewBox="0 0 30 26" fill="none" xmlns="http://www.w3.org/2000/svg">
<path d="M28.75 1.75012C27.553 2.59447 26.2276 3.24026 24.825 3.66262C24.0722 2.79701 23.0717 2.18348 21.9588 1.90503C20.8459 1.62657 19.6744 1.69661 18.6026 2.10569C17.5308 2.51476 16.6106 3.24312 15.9662 4.19226C15.3219 5.14141 14.9846 6.26554 15 7.41262V8.66262C12.8033 8.71958 10.6266 8.23238 8.66376 7.24443C6.70093 6.25647 5.0129 4.79841 3.75 3.00012C3.75 3.00012 -1.25 14.2501 10 19.2501C7.42566 20.9976 4.35895 21.8738 1.25 21.7501C12.5 28.0001 26.25 21.7501 26.25 7.37512C26.2488 7.02694 26.2154 6.67961 26.15 6.33762C27.4258 5.07948 28.326 3.49101 28.75 1.75012Z" fill="white" stroke="white" stroke-width="2" stroke-linecap="round" stroke-linejoin="round"/>
</svg>
